<svg xmlns="http://www.w3.org/2000/svg" viewBox="0 0 1500 1500" width="1500" height="1500"><g transform="translate(57.0 117.0) rotate(0.0 690.5 648.5) scale(1.0281593565107205 1.027610800926355)"><svg width="1343.177" height="1262.151" viewBox="0 0 1343.177 1262.151"><linearGradient id="a"><stop offset="0" stop-color="#c0ddfc"/><stop offset=".996" stop-color="#fff"/></linearGradient><linearGradient xmlns:xlink="http://www.w3.org/1999/xlink" id="b" gradientTransform="matrix(1 0 0 -1 6009.8047 -6568.3257)" gradientUnits="userSpaceOnUse" x1="-5156.005" x2="-5156.005" xlink:href="#a" y1="-7367.296" y2="-7811.962"/><linearGradient id="c" gradientTransform="matrix(-1 0 0 -1 -2452.5117 -7630.8496)" gradientUnits="userSpaceOnUse" x1="-2899.453" x2="-2899.453" y1="-8580.233" y2="-8879.617"><stop offset="0" stop-color="#ffd8a1"/><stop offset=".996" stop-color="#fff"/></linearGradient><linearGradient xmlns:xlink="http://www.w3.org/1999/xlink" id="d" gradientTransform="matrix(.2303 .7477 .8068 -.2485 6626.1865 -1842.4639)" gradientUnits="userSpaceOnUse" x1="145.006" x2="275.642" xlink:href="#a" y1="-8126.338" y2="-8126.338"/><g fill="#c4ecfe" opacity=".3"><path d="M5.573 4.734h1332.71v1252.338H5.573zM1.299 0v1262.021h1341.258V0z"/><path d="M968.141 0h4.647v1262.021h-4.647zM773.853 0h4.647v1262.021h-4.647z"/><path d="M968.141 0h4.647v1262.021h-4.647zm194.51 0h4.647v1262.021h-4.647zM579.564 0h4.647v1262.021h-4.647zM385.276 0h4.647v1262.021h-4.647zM193.2 0h4.647v1262.021H193.2z"/></g><path d="m1343.083 1262.151.094-460.6c0-78.858-87.158-139.024-167.083-80.025-80.366 74.877-99.487 113.362-213.555 112.34-222.913 4.085-273.547 426.525-598.117 426.525z" fill="url(#b)"/><path d="M893.883 1261.219c-296.5 0-235.953-272.611-534.723-288.221-99.748-5.543-175.339-22.934-231.951-71.321C68.274 858.377.098 889.061.098 943.558L0 1260.612z" fill="url(#c)"/><circle cx="1078.145" cy="343.344" fill="#bfd9ff" r="5.471"/><circle cx="1213.125" cy="60.298" fill="#bfd9ff" r="5.471"/><path d="m150.901 270.392-8.789 2.707c1.932 6.274-10.718 24.885-21.848 41.244-19.22 28.217-40.926 60.231-33.952 82.877l8.789-2.707c-5.819-18.894 15.636-50.479 32.872-75.759 14.483-21.412 26.014-38.342 22.928-48.362z" fill="url(#d)"/><path d="m1198.251 590.583 12.804-7.212c-5.555-9.862 4.192-26.014 15.247-56.7 19.104-52.935 42.396-94.643 22.344-130.241l-12.804 7.212c16.731 29.702-6.335 70.617-23.478 118.048-14.334 40.136-22.985 53.143-14.113 68.893zm-127.175-386.61v-14.696c-11.319 0-20.608-16.419-41.918-41.112-36.745-42.625-61.653-83.389-102.51-83.389v14.696c34.09 0 58.418 40.178 91.33 78.392 27.935 32.188 35.021 46.109 53.098 46.109z" fill="#f9d5ff"/><g fill="#bfd9ff"><circle cx="302.595" cy="148.458" r="5.975"/><circle cx="75.84" cy="90.81" r="5.975"/><circle cx="624.589" cy="60.298" r="5.975"/></g><path d="M1137.721 385.211h-31.959a112.386 112.386 0 0 0 31.959-19.766z" fill="none"/><path d="M860.67 1261.022H151.404a1.5 1.5 0 0 1 0-3H860.67a1.5 1.5 0 0 1 0 3z" fill="#2b2b2b"/></svg></g><g transform="translate(790.0 198.0) rotate(0.0 28.0 32.0) scale(0.5209302325581395 0.5340453938584779)"><svg width="107.5" height="119.84" viewBox="0 0 107.5 119.84"><path d="M28 4.84h10v95.192a2.808 2.808 0 0 1-2.808 2.808H28z" fill="#ababc2"/><path d="m28 31.955 10-4.519v11.683c-3.382-.028-6.709 1.06-10 2.875z" fill="none"/><g fill="#ababc2"><circle cx="19" cy="100.84" r="19"/><path d="M107.5 9.926c-13.199 6.175-25.664 7.687-39.584 1.426C60.948 8.219 54.959 3.597 47.648 1.22c-8.407-2.734-12.88-.403-19.705 2.392.254 4.2.039 24.517.063 29.276 19.589-11.037 38.391 9.404 56.802 11.246 5.32.533 16.612.934 22.692-2.513z"/></g></svg></g><g transform="translate(818.0 454.0) rotate(0.0 -352.5 479.0) translate(-69.0 0.0) scale(-2.084257206208426 2.0866049978328056)"><svg width="305.145" height="459.119" viewBox="33.105 0 305.145 459.119"><g fill="#f9d5ff"><path d="M148.929 216.343h7.384v238.346h-7.384z"/><path d="M254.738 455.427H50.505l22.815-4.8a368.7 368.7 0 0 1 76.348-7.975h5.907a368.687 368.687 0 0 1 76.347 7.975z"/><path d="M254.738 459.119H50.505a3.689 3.689 0 0 1-3.692-3.323 3.649 3.649 0 0 1 2.879-3.987l22.816-4.8a374.764 374.764 0 0 1 77.086-8.049h5.906a374.236 374.236 0 0 1 77.086 8.049l22.816 4.8a3.65 3.65 0 0 1 2.879 3.987 3.453 3.453 0 0 1-3.543 3.323zm-167.684-7.384h131.061a369.561 369.561 0 0 0-62.614-5.39h-5.907a369.99 369.99 0 0 0-62.54 5.39z"/></g><path d="m276.741 237.9-193.3-21.56 58.7-179.794A47.687 47.687 0 0 1 187.4 3.692h99.533a47.6 47.6 0 0 1 45.262 62.392z" fill="#fff"/><path d="M276.741 241.6h-.441L83 220.039a3.621 3.621 0 0 1-2.658-1.7 3.687 3.687 0 0 1-.369-3.175l58.619-179.796A51.248 51.248 0 0 1 187.4 0h99.533a50.587 50.587 0 0 1 41.5 21.191 50.844 50.844 0 0 1 7.236 46.075l-55.457 171.818a3.66 3.66 0 0 1-3.471 2.516zM88.383 213.168l185.774 20.748 54.492-168.939a43.877 43.877 0 0 0-41.718-57.519H187.4a43.77 43.77 0 0 0-41.717 30.347z" fill="#f9d5ff"/><path d="M20.453 249.865h240.266a16.859 16.859 0 0 0 16.1-11.962 16.755 16.755 0 0 0-16.1-21.56H20.453A16.8 16.8 0 0 0 3.692 233.1a16.7 16.7 0 0 0 16.761 16.765z" fill="#fff"/><path d="M260.719 253.556H20.453a20.453 20.453 0 1 1 0-40.9h240.266a20.452 20.452 0 0 1 19.64 26.286 20.647 20.647 0 0 1-19.64 14.614zM20.453 220.034a13.07 13.07 0 0 0 0 26.139h240.266a13.069 13.069 0 0 0 10.558-20.822 12.977 12.977 0 0 0-10.558-5.317z" fill="#f9d5ff"/></svg></g><g transform="translate(888.0 267.0) rotate(0.0 33.0 47.0) scale(0.6133600981376157 0.6071370902632004)"><svg width="107.604" height="154.825" viewBox="0 0 107.604 154.825"><path d="M28 4.825h10v95.192a2.808 2.808 0 0 1-2.808 2.808H28z" fill="#ababc2"/><path d="M28 27.421h10v11.683c-3.382-.028-6.709 1.06-10 2.875z" fill="none"/><g fill="#ababc2"><circle cx="19" cy="100.825" r="19"/><path d="M97.604 39.825h10v95.192a2.808 2.808 0 0 1-2.808 2.808h-7.192z"/><circle cx="88.5" cy="135.825" r="19"/></g><path d="M97.604 40.108h10v11.683c-2.419 1.573-6.167 1.676-10 1.875z" fill="none"/><path d="M107.604 9.911c-13.199 6.175-25.664 7.687-39.584 1.426-6.968-3.133-12.957-7.755-20.268-10.132-8.407-2.734-13.029-.338-19.854 2.457.124 4.583-.124 18.042.041 29.272 19.589-11.037 38.563 9.343 56.973 11.186 5.32.533 16.612.934 22.692-2.513z" fill="#ababc2"/></svg></g><g transform="translate(-172.0 789.0) rotate(0.0 759.5 310.5) translate(1201.0 0.0) scale(1.1273379832005117 1.1231362449268965)"><svg width="282.08" height="552.916" viewBox="1065.342 0 282.08 552.916"><path d="M0 19.864h29.186v533.052H0z" fill="#f9d5ff"/><path d="M0 14.167h29.186v41.918H0z" fill="#2b2b2b"/><path d="M0 0h1347.3v26.3H0z" fill="#2b2b2b"/><path d="M1318.236 19.864h29.186v533.052h-29.186z" fill="#f9d5ff"/><path d="M1318.236 14.167h29.186v41.918h-29.186z" fill="#2b2b2b"/></svg></g><g transform="translate(888.0 528.0) rotate(0.0 254.0 131.0) scale(2.5309518471464516 2.531988093857513)"><svg width="200.715" height="103.476" viewBox="0 0 200.715 103.476"><path d="M0 92.24h89.173v11.134H0z" fill="#f9d5ff"/><path d="M97.446 0h96.936a6.108 6.108 0 0 1 6.333 6.026 3.157 3.157 0 0 1-.1 1.022L190.3 96.428a8.05 8.05 0 0 1-7.967 7.048H78.447L89.581 7.051A8.3 8.3 0 0 1 97.446 0z" fill="#f9d5ff"/><ellipse cx="143.236" cy="51.821" fill="#fff" rx="9.704" ry="8.683" transform="matrix(.72706615 -.68656741 .68656741 .72706615 3.515 112.485)"/></svg></g><g transform="translate(1128.0 138.0) rotate(0.0 -471.5 636.0) scale(-1.4756117216461129 1.4747638001138537)"><svg width="639.057" height="862.511" viewBox="0 0 639.057 862.511"><linearGradient id="e" gradientTransform="matrix(.933 0 0 -.934 863.243 6787.898)" gradientUnits="userSpaceOnUse" x1="-605.334" x2="-605.334" y1="6837.454" y2="7190.269"><stop offset="0" stop-color="#ea979a"/><stop offset=".409" stop-color="#f2d38b"/><stop offset=".499" stop-color="#7e9dae"/><stop offset=".599" stop-color="#90979d"/><stop offset="1" stop-color="#7ebddb"/></linearGradient><linearGradient xmlns:xlink="http://www.w3.org/1999/xlink" id="g" x1="-467.452" x2="-467.452" xlink:href="#e" y1="6837.457" y2="7190.275"/><linearGradient id="f" gradientTransform="matrix(.933 0 0 -.934 863.243 6787.898)" gradientUnits="userSpaceOnUse" x1="-513.627" x2="-513.627" y1="6356.48" y2="6955.658"><stop offset="0" stop-color="#9774ac"/><stop offset=".401" stop-color="#47a6d3"/><stop offset=".501" stop-color="#a7a7ae"/><stop offset=".591" stop-color="#e89ac0"/><stop offset="1" stop-color="#bfe7d1"/></linearGradient><linearGradient xmlns:xlink="http://www.w3.org/1999/xlink" id="h" x1="-605.017" x2="-605.017" xlink:href="#f" y1="6356.697" y2="6951.061"/><linearGradient xmlns:xlink="http://www.w3.org/1999/xlink" id="i" x1="-345.147" x2="-345.147" xlink:href="#e" y1="6837.454" y2="7190.269"/><linearGradient xmlns:xlink="http://www.w3.org/1999/xlink" id="j" x1="-601.376" x2="-601.376" xlink:href="#f" y1="6356.697" y2="6951.061"/><linearGradient xmlns:xlink="http://www.w3.org/1999/xlink" id="k" x1="-528.905" x2="-528.905" xlink:href="#f" y1="6356.697" y2="6951.061"/><path d="M0 0h639.026v862.511H0z" fill="none"/><path d="m528.043 355.215 2.261 90.324a68.138 68.138 0 0 1-66.389 69.84q-1.02.025-2.042.02l-71.982-.36 58.7-182.555z" fill="#edad94"/><path d="M351.773 29.434c-6.631 27.147-46.059 74.561-35.449 113.65 6.391 23.527 8.681 54.534-10.61 95.19-13.142 27.628 53.9 23.163 83.314-6.153s17.121-125.354 17.121-125.354z" fill="#2b2b2b"/><path d="m184.3 245.033 111.288 21.353-39.42 6.52L356 203.412a46.445 46.445 0 0 1 53.052 76.25l-99.833 69.493-3.136 2.173a38.925 38.925 0 0 1-36.17 4.221l-101.884-39.934z" fill="url(#e)"/><path d="M326.212 360.614c-.363-54.172 36.893-52 22.184-88.315-12.542-31.132-2.531-73.113 26.767-84.816a44.421 44.421 0 0 1 16.277-3.016c32.072-.241 34.242-1.568 47.747-1.688a63.684 63.684 0 0 1 20.617 3.377c31.113 10.979 49.917 46.571 40.029 80.593a67.836 67.836 0 0 0-2.769 21.477c.362 12.306 30.624 30.154 30.987 67.317z" fill="url(#g)"/><path d="M460.045 186.156a41.368 41.368 0 0 1-24.472 32.816l-30.867 13.634a20.846 20.846 0 0 1-29.179-18.941l-.241-26.182a44.426 44.426 0 0 1 16.278-3.016c32.072-.241 34.242-1.568 47.747-1.688a61.79 61.79 0 0 1 20.734 3.377z" fill="#fff"/><path d="m441.236 274.591-33.156 62.616 76.803 14.721 13.504-25.336zm-99.351 38.245a1.543 1.543 0 0 1-1.2-.489 1.866 1.866 0 0 1-.121-2.533 32.627 32.627 0 0 0 6.391-36.674 1.781 1.781 0 1 1 3.088-1.774l.046.086c.12.241 10.972 21.716-6.873 40.778a1.934 1.934 0 0 1-1.331.606z" fill="#2b2b2b"/><path d="m461.858 515.188-153.607-.506 61.249-65.151-5.54 379.078-90.067-1.327c-1.447-7.964-2.532-15.81-3.858-23.768l-3.381-23.768c-2.29-15.811-4.221-31.61-6.149-47.536-3.739-31.61-6.993-63.34-9.888-94.95-1.326-15.811-2.769-31.61-3.978-47.414l-1.813-23.761-1.689-23.768q-3.258-47.415-5.546-94.83a59.919 59.919 0 0 1 47.144-61.531l13.383-2.9c12.419-2.655 24.838-4.946 37.257-7 12.418-1.931 24.958-3.62 37.377-4.826 12.542-1.206 25.085-2.052 37.618-2.173h9.4c3.136.121 6.27.121 9.405.243s6.27.241 9.525.489l4.7.489 2.413.241 82.478-5.17 2.263 79.346a68.53 68.53 0 0 1-66.541 70.458q-1.076.038-2.155.035z" fill="url(#f)"/><path d="m379.201 461.697 76.612 53.702h8.769l9.356-.741 9.047-2.186 10.268-4.318 7.699-4.842 4.682-2.928-3.496-58.996z" fill="#2b2b2b"/><path d="m505.634 500.384-217.886-69.8 74.035-24.371-224.508 284.133-68-64.546c12.3-27.146 81.506-119.924 95.853-145.5 7.234-12.788 14.348-25.577 21.828-38.245l10.972-19.062 11.214-18.942q22.425-37.824 45.575-75.044a59.3 59.3 0 0 1 63.661-26.421l9.526 2.292c21.7 5.067 43.167 10.617 64.626 16.288 21.463 5.912 42.8 11.824 63.9 18.459 21.221 6.52 71.869 25.716 71.869 25.716z" fill="url(#h)"/><path d="m209.619 598.773 27.972-131.144 18.809 72.027zm91.271-185.437a1.935 1.935 0 0 1-1.326-.6l-13.383-14.6a1.793 1.793 0 0 1 2.654-2.412l13.383 14.6a1.751 1.751 0 0 1-.054 2.473l-.067.06a1.548 1.548 0 0 1-1.207.479z" fill="#2b2b2b"/><path d="m374.078 154.667 37.377-2.292a35.085 35.085 0 0 0 32.918-37.122v-.041L441 58.749a56.144 56.144 0 0 0-59.382-52.722h-.065a56.156 56.156 0 0 0-52.693 59.415v.066l3.14 51.758a39.8 39.8 0 0 0 42.069 37.4z" fill="#fdc068"/><path d="m407.475 216.921 47.024-20.63-11.455-106.412-59.682 3.621.965 108.343a16.51 16.51 0 0 0 23.148 15.08z" fill="#fdc068"/><g fill="#2b2b2b"><ellipse cx="336.098" cy="81.796" rx="6.39" ry="6.394"/><path d="M352.617 100.014a1.5 1.5 0 0 1-.724-.122L346.471 97a5.691 5.691 0 0 1-2.533-3.861 6.248 6.248 0 0 1 1.086-4.584l7.355-10.014a1.556 1.556 0 1 1 2.562 1.766l-.031.043-7.354 10.015a2.688 2.688 0 0 0-.489 2.171 2.348 2.348 0 0 0 1.085 1.69l5.185 2.771a1.7 1.7 0 0 1 .723 2.171 1.841 1.841 0 0 1-1.443.846zm.602 22.44h-.964a12.1 12.1 0 0 1-8.079-4.947 1.573 1.573 0 1 1 2.653-1.689 9.2 9.2 0 0 0 5.788 3.62c2.531.242 5.185-1.087 7.957-3.861a1.535 1.535 0 0 1 2.17 2.171c-3.134 3.138-6.391 4.706-9.525 4.706z"/><ellipse cx="372.511" cy="79.865" rx="6.39" ry="6.394"/></g><path d="M479.216 260.234 589.3 248.772l-25.561 85.179-99.229-65.393a46.42 46.42 0 0 1 50.626-77.823q.189.123.375.247l99.231 65.391 3.978 2.655a45.151 45.151 0 0 1-29.42 82.639l-100.68-10.979z" fill="url(#i)"/><path d="M498.387 279.176a1.754 1.754 0 0 1-1.567-.844L479.7 251.91a1.794 1.794 0 0 1 .435-2.5l.054-.037a1.894 1.894 0 0 1 2.531.489l17.115 26.414a1.794 1.794 0 0 1-.436 2.5l-.052.035a1.371 1.371 0 0 1-.96.365z" fill="#2b2b2b"/><path d="M527.807 295.348a43.8 43.8 0 0 1-20.74 37.281l-18.447-2.052s-14.589-18.7-14.589-33.178c0-17.856 5.185-37.163 5.185-37.163l26.767-2.771a43.852 43.852 0 0 1 21.824 37.883z" fill="#fff"/><path d="M248.8 862.511h98.27a15.933 15.933 0 0 0 15.915-15.684l.361-20.994-91.03.844-25.561 19.909c-9.285 2.296-7.596 15.925 2.045 15.925zM2.478 612.768 99.9 704.823a15.9 15.9 0 0 0 22.307.121l15.07-14.6-68-64.546-57.034-25.81c-8.198-4.835-16.517 6.031-9.765 12.78zM367.567 7.6c-2.531 16.528-27.008 46.69-38.7 49.949.117-.003 2.167-42.11 38.7-49.949z" fill="#2b2b2b"/><path d="M247.237 598.773c0-8.686-6.516-65.752-10.37-116.062a65.724 65.724 0 0 1 54.74-69.737 65.542 65.542 0 0 1 76.08 64.79l-.12 90.365z" fill="url(#j)"/><path d="m338.026 423.954 63.543 56.825-40.392.965z" fill="url(#k)"/><path d="M367.929 513.716a1.855 1.855 0 0 1-1.809-1.81v-23.042a1.809 1.809 0 1 1 3.617 0v23.042a1.855 1.855 0 0 1-1.808 1.81zM355.267 12.424c-19.653 15.81 17.122 43.682 40.754 61.046 29.3 21.6-6.873 110.635 38.944 156.24s67.274-16.89 114.542-15.563c11.334.241-23.029-13.03-35.569-70.577-9.162-41.984-52.086-45.965-56.307-64.057-1.326-5.912-5.786-39.09-27.489-60.2-20.254-19.678-48.469-28.125-74.875-6.889z" fill="#2b2b2b"/><path d="m168.021 315.733-30.5-11.945a33.608 33.608 0 0 1 18.57-64.305l28.335 5.43zm314.209 14.718-17.241-1.809c-18.327-1.93-32.313-18.093-30.623-36.557a33.565 33.565 0 0 1 30.022-30.4l14.823-1.568a25.074 25.074 0 0 1 17.242 4.705l3.858 2.771a33.3 33.3 0 0 1 10.851 39.807l-3.5 8.083a24.652 24.652 0 0 1-25.432 14.968z" fill="#fdc068"/><path d="M254.23 276.4a1.715 1.715 0 0 1-1.446-.724 1.872 1.872 0 0 1 .361-2.534l16.881-12.062a1.809 1.809 0 0 1 2.169 2.9l-16.88 12.062a1.94 1.94 0 0 1-1.085.358zm255.25-17.492a1.829 1.829 0 0 1-1.81-1.569 1.693 1.693 0 0 1 1.434-1.917c.045-.007.09-.011.135-.014l58.478-6.153a1.692 1.692 0 0 1 1.915 1.433c.006.045.011.091.014.137a1.771 1.771 0 0 1-1.567 1.929l-58.479 6.154z" fill="#2b2b2b"/><path d="m184.299 245.033-16.278 70.7 19.653 7.721 15.916-74.682z" fill="#fff"/><path d="M235.542 479.814a1.854 1.854 0 0 1-1.809-1.809c-.12-32.695 24.718-61.287 57.754-66.719h.241a34.739 34.739 0 0 1 23.873 5.188l68 43.683a1.842 1.842 0 0 1-1.876 3.17l-.055-.034-68-43.683a31.7 31.7 0 0 0-21.584-4.7h-.241c-31.228 5.188-54.619 32.213-54.5 63.1a1.854 1.854 0 0 1-1.803 1.804zM380.83 158.166a1.818 1.818 0 0 1-1.809-1.447 1.793 1.793 0 0 1 1.447-2.052l17.724-3.016a1.775 1.775 0 0 1 .664 3.488l-.061.01-17.724 3.017z" fill="#2b2b2b"/></svg></g><g transform="translate(2430.0 789.0) rotate(0.0 -759.5 310.5) translate(-1198.0 0.0) scale(-1.1273379832005117 1.1231362449268965)"><svg width="284.742" height="552.916" viewBox="1062.68 0 284.742 552.916"><path d="M0 19.864h29.186v533.052H0z" fill="#f9d5ff"/><path d="M0 14.167h29.186v41.918H0z" fill="#2b2b2b"/><path d="M0 0h1347.3v26.3H0z" fill="#2b2b2b"/><path d="M1318.236 19.864h29.186v533.052h-29.186z" fill="#f9d5ff"/><path d="M1318.236 14.167h29.186v41.918h-29.186z" fill="#2b2b2b"/></svg></g><g transform="translate(1561.0 153.0) rotate(0.0 -471.5 636.0) translate(-788.0 412.0) scale(-1.4756117216461129 1.4747638001138537)"><svg width="93.521" height="583.144" viewBox="534.016 279.367 93.521 583.144"><linearGradient id="l" gradientTransform="matrix(.933 0 0 -.934 863.243 6787.898)" gradientUnits="userSpaceOnUse" x1="-605.334" x2="-605.334" y1="6837.454" y2="7190.269"><stop offset="0" stop-color="#ea979a"/><stop offset=".409" stop-color="#f2d38b"/><stop offset=".499" stop-color="#7e9dae"/><stop offset=".599" stop-color="#90979d"/><stop offset="1" stop-color="#7ebddb"/></linearGradient><linearGradient xmlns:xlink="http://www.w3.org/1999/xlink" id="n" x1="-467.452" x2="-467.452" xlink:href="#l" y1="6837.457" y2="7190.275"/><linearGradient id="m" gradientTransform="matrix(.933 0 0 -.934 863.243 6787.898)" gradientUnits="userSpaceOnUse" x1="-513.627" x2="-513.627" y1="6356.48" y2="6955.658"><stop offset="0" stop-color="#9774ac"/><stop offset=".401" stop-color="#47a6d3"/><stop offset=".501" stop-color="#a7a7ae"/><stop offset=".591" stop-color="#e89ac0"/><stop offset="1" stop-color="#bfe7d1"/></linearGradient><linearGradient xmlns:xlink="http://www.w3.org/1999/xlink" id="o" x1="-605.017" x2="-605.017" xlink:href="#m" y1="6356.697" y2="6951.061"/><linearGradient xmlns:xlink="http://www.w3.org/1999/xlink" id="p" x1="-345.147" x2="-345.147" xlink:href="#l" y1="6837.454" y2="7190.269"/><linearGradient xmlns:xlink="http://www.w3.org/1999/xlink" id="q" x1="-601.376" x2="-601.376" xlink:href="#m" y1="6356.697" y2="6951.061"/><linearGradient xmlns:xlink="http://www.w3.org/1999/xlink" id="r" x1="-528.905" x2="-528.905" xlink:href="#m" y1="6356.697" y2="6951.061"/><path d="M0 0h639.026v862.511H0z" fill="none"/><path d="m528.043 355.215 2.261 90.324a68.138 68.138 0 0 1-66.389 69.84q-1.02.025-2.042.02l-71.982-.36 58.7-182.555z" fill="#edad94"/><path d="M351.773 29.434c-6.631 27.147-46.059 74.561-35.449 113.65 6.391 23.527 8.681 54.534-10.61 95.19-13.142 27.628 53.9 23.163 83.314-6.153s17.121-125.354 17.121-125.354z" fill="#2b2b2b"/><path d="m184.3 245.033 111.288 21.353-39.42 6.52L356 203.412a46.445 46.445 0 0 1 53.052 76.25l-99.833 69.493-3.136 2.173a38.925 38.925 0 0 1-36.17 4.221l-101.884-39.934z" fill="url(#l)"/><path d="M326.212 360.614c-.363-54.172 36.893-52 22.184-88.315-12.542-31.132-2.531-73.113 26.767-84.816a44.421 44.421 0 0 1 16.277-3.016c32.072-.241 34.242-1.568 47.747-1.688a63.684 63.684 0 0 1 20.617 3.377c31.113 10.979 49.917 46.571 40.029 80.593a67.836 67.836 0 0 0-2.769 21.477c.362 12.306 30.624 30.154 30.987 67.317z" fill="url(#n)"/><path d="M460.045 186.156a41.368 41.368 0 0 1-24.472 32.816l-30.867 13.634a20.846 20.846 0 0 1-29.179-18.941l-.241-26.182a44.426 44.426 0 0 1 16.278-3.016c32.072-.241 34.242-1.568 47.747-1.688a61.79 61.79 0 0 1 20.734 3.377z" fill="#fff"/><path d="m441.236 274.591-33.156 62.616 76.803 14.721 13.504-25.336zm-99.351 38.245a1.543 1.543 0 0 1-1.2-.489 1.866 1.866 0 0 1-.121-2.533 32.627 32.627 0 0 0 6.391-36.674 1.781 1.781 0 1 1 3.088-1.774l.046.086c.12.241 10.972 21.716-6.873 40.778a1.934 1.934 0 0 1-1.331.606z" fill="#2b2b2b"/><path d="m461.858 515.188-153.607-.506 61.249-65.151-5.54 379.078-90.067-1.327c-1.447-7.964-2.532-15.81-3.858-23.768l-3.381-23.768c-2.29-15.811-4.221-31.61-6.149-47.536-3.739-31.61-6.993-63.34-9.888-94.95-1.326-15.811-2.769-31.61-3.978-47.414l-1.813-23.761-1.689-23.768q-3.258-47.415-5.546-94.83a59.919 59.919 0 0 1 47.144-61.531l13.383-2.9c12.419-2.655 24.838-4.946 37.257-7 12.418-1.931 24.958-3.62 37.377-4.826 12.542-1.206 25.085-2.052 37.618-2.173h9.4c3.136.121 6.27.121 9.405.243s6.27.241 9.525.489l4.7.489 2.413.241 82.478-5.17 2.263 79.346a68.53 68.53 0 0 1-66.541 70.458q-1.076.038-2.155.035z" fill="url(#m)"/><path d="m379.201 461.697 76.612 53.702h8.769l9.356-.741 9.047-2.186 10.268-4.318 7.699-4.842 4.682-2.928-3.496-58.996z" fill="#2b2b2b"/><path d="m505.634 500.384-217.886-69.8 74.035-24.371-224.508 284.133-68-64.546c12.3-27.146 81.506-119.924 95.853-145.5 7.234-12.788 14.348-25.577 21.828-38.245l10.972-19.062 11.214-18.942q22.425-37.824 45.575-75.044a59.3 59.3 0 0 1 63.661-26.421l9.526 2.292c21.7 5.067 43.167 10.617 64.626 16.288 21.463 5.912 42.8 11.824 63.9 18.459 21.221 6.52 71.869 25.716 71.869 25.716z" fill="url(#o)"/><path d="m209.619 598.773 27.972-131.144 18.809 72.027zm91.271-185.437a1.935 1.935 0 0 1-1.326-.6l-13.383-14.6a1.793 1.793 0 0 1 2.654-2.412l13.383 14.6a1.751 1.751 0 0 1-.054 2.473l-.067.06a1.548 1.548 0 0 1-1.207.479z" fill="#2b2b2b"/><path d="m374.078 154.667 37.377-2.292a35.085 35.085 0 0 0 32.918-37.122v-.041L441 58.749a56.144 56.144 0 0 0-59.382-52.722h-.065a56.156 56.156 0 0 0-52.693 59.415v.066l3.14 51.758a39.8 39.8 0 0 0 42.069 37.4z" fill="#fdc068"/><path d="m407.475 216.921 47.024-20.63-11.455-106.412-59.682 3.621.965 108.343a16.51 16.51 0 0 0 23.148 15.08z" fill="#fdc068"/><g fill="#2b2b2b"><ellipse cx="336.098" cy="81.796" rx="6.39" ry="6.394"/><path d="M352.617 100.014a1.5 1.5 0 0 1-.724-.122L346.471 97a5.691 5.691 0 0 1-2.533-3.861 6.248 6.248 0 0 1 1.086-4.584l7.355-10.014a1.556 1.556 0 1 1 2.562 1.766l-.031.043-7.354 10.015a2.688 2.688 0 0 0-.489 2.171 2.348 2.348 0 0 0 1.085 1.69l5.185 2.771a1.7 1.7 0 0 1 .723 2.171 1.841 1.841 0 0 1-1.443.846zm.602 22.44h-.964a12.1 12.1 0 0 1-8.079-4.947 1.573 1.573 0 1 1 2.653-1.689 9.2 9.2 0 0 0 5.788 3.62c2.531.242 5.185-1.087 7.957-3.861a1.535 1.535 0 0 1 2.17 2.171c-3.134 3.138-6.391 4.706-9.525 4.706z"/><ellipse cx="372.511" cy="79.865" rx="6.39" ry="6.394"/></g><path d="M479.216 260.234 589.3 248.772l-25.561 85.179-99.229-65.393a46.42 46.42 0 0 1 50.626-77.823q.189.123.375.247l99.231 65.391 3.978 2.655a45.151 45.151 0 0 1-29.42 82.639l-100.68-10.979z" fill="url(#p)"/><path d="M498.387 279.176a1.754 1.754 0 0 1-1.567-.844L479.7 251.91a1.794 1.794 0 0 1 .435-2.5l.054-.037a1.894 1.894 0 0 1 2.531.489l17.115 26.414a1.794 1.794 0 0 1-.436 2.5l-.052.035a1.371 1.371 0 0 1-.96.365z" fill="#2b2b2b"/><path d="M527.807 295.348a43.8 43.8 0 0 1-20.74 37.281l-18.447-2.052s-14.589-18.7-14.589-33.178c0-17.856 5.185-37.163 5.185-37.163l26.767-2.771a43.852 43.852 0 0 1 21.824 37.883z" fill="#fff"/><path d="M248.8 862.511h98.27a15.933 15.933 0 0 0 15.915-15.684l.361-20.994-91.03.844-25.561 19.909c-9.285 2.296-7.596 15.925 2.045 15.925zM2.478 612.768 99.9 704.823a15.9 15.9 0 0 0 22.307.121l15.07-14.6-68-64.546-57.034-25.81c-8.198-4.835-16.517 6.031-9.765 12.78zM367.567 7.6c-2.531 16.528-27.008 46.69-38.7 49.949.117-.003 2.167-42.11 38.7-49.949z" fill="#2b2b2b"/><path d="M247.237 598.773c0-8.686-6.516-65.752-10.37-116.062a65.724 65.724 0 0 1 54.74-69.737 65.542 65.542 0 0 1 76.08 64.79l-.12 90.365z" fill="url(#q)"/><path d="m338.026 423.954 63.543 56.825-40.392.965z" fill="url(#r)"/><path d="M367.929 513.716a1.855 1.855 0 0 1-1.809-1.81v-23.042a1.809 1.809 0 1 1 3.617 0v23.042a1.855 1.855 0 0 1-1.808 1.81zM355.267 12.424c-19.653 15.81 17.122 43.682 40.754 61.046 29.3 21.6-6.873 110.635 38.944 156.24s67.274-16.89 114.542-15.563c11.334.241-23.029-13.03-35.569-70.577-9.162-41.984-52.086-45.965-56.307-64.057-1.326-5.912-5.786-39.09-27.489-60.2-20.254-19.678-48.469-28.125-74.875-6.889z" fill="#2b2b2b"/><path d="m168.021 315.733-30.5-11.945a33.608 33.608 0 0 1 18.57-64.305l28.335 5.43zm314.209 14.718-17.241-1.809c-18.327-1.93-32.313-18.093-30.623-36.557a33.565 33.565 0 0 1 30.022-30.4l14.823-1.568a25.074 25.074 0 0 1 17.242 4.705l3.858 2.771a33.3 33.3 0 0 1 10.851 39.807l-3.5 8.083a24.652 24.652 0 0 1-25.432 14.968z" fill="#fdc068"/><path d="M254.23 276.4a1.715 1.715 0 0 1-1.446-.724 1.872 1.872 0 0 1 .361-2.534l16.881-12.062a1.809 1.809 0 0 1 2.169 2.9l-16.88 12.062a1.94 1.94 0 0 1-1.085.358zm255.25-17.492a1.829 1.829 0 0 1-1.81-1.569 1.693 1.693 0 0 1 1.434-1.917c.045-.007.09-.011.135-.014l58.478-6.153a1.692 1.692 0 0 1 1.915 1.433c.006.045.011.091.014.137a1.771 1.771 0 0 1-1.567 1.929l-58.479 6.154z" fill="#2b2b2b"/><path d="m184.299 245.033-16.278 70.7 19.653 7.721 15.916-74.682z" fill="#fff"/><path d="M235.542 479.814a1.854 1.854 0 0 1-1.809-1.809c-.12-32.695 24.718-61.287 57.754-66.719h.241a34.739 34.739 0 0 1 23.873 5.188l68 43.683a1.842 1.842 0 0 1-1.876 3.17l-.055-.034-68-43.683a31.7 31.7 0 0 0-21.584-4.7h-.241c-31.228 5.188-54.619 32.213-54.5 63.1a1.854 1.854 0 0 1-1.803 1.804zM380.83 158.166a1.818 1.818 0 0 1-1.809-1.447 1.793 1.793 0 0 1 1.447-2.052l17.724-3.016a1.775 1.775 0 0 1 .664 3.488l-.061.01-17.724 3.017z" fill="#2b2b2b"/></svg></g><g transform="translate(490.0 153.0) rotate(53.571708599347545 181.5 470.5) translate(0.0 292.0) scale(1.7285714285714286 1.7313165917533397)"><svg width="210" height="374.859" viewBox="0 168.658 210 374.859"><path d="m186.386 377.853-.524-.749c-3.753-5.949-5.862-12.565-5.862-19.545 0-6.472 1.832-12.625 5.088-18.229 7.886-9.967 12.55-22.229 12.55-35.498v-65.996c0-12.337-10.874-22.337-24.288-22.337-8.313 0-16.049 3.91-20.505 10.365l-13.602 19.704c-8.315 12.046-22.42 19.68-37.908 20.518l-9.335.505-2 .41H52.409c-22.117 0-40.047 16.49-40.047 36.83 0 13.269 4.664 25.531 12.549 35.498 3.257 5.605 5.089 11.757 5.089 18.23 0 6.98-2.109 13.596-5.862 19.545l-.725 1.029C8.532 392.602 0 411.971 0 434.366v7.428C0 492.718 41.282 534 92.206 534h25.589C168.718 534 210 492.718 210 441.794v-7.428c0-22.395-8.734-42.044-23.614-56.513z" fill="#f9d5ff"/><circle cx="103.002" cy="393.521" fill="#2b2b2b" r="34"/><path d="M103.182 436.162c-4.247 0-8.441-.621-12.469-1.846a1 1 0 0 1 .582-1.914 40.79 40.79 0 0 0 11.887 1.76c12.52 0 24.168-5.632 31.959-15.451a.997.997 0 0 1 1.404-.162.998.998 0 0 1 .162 1.404c-8.172 10.301-20.392 16.209-33.525 16.209zm-15.943-3.15a.99.99 0 0 1-.382-.076c-7.962-3.29-14.682-8.846-19.432-16.065a1 1 0 1 1 1.67-1.1c4.529 6.884 10.936 12.181 18.525 15.317a.999.999 0 0 1-.381 1.924zm53.028-19.38a1 1 0 0 1-.887-1.461 40.853 40.853 0 0 0-.256-38.047 1 1 0 1 1 1.761-.947 42.874 42.874 0 0 1 5.068 20.213c0 6.852-1.659 13.665-4.799 19.703a.997.997 0 0 1-.887.539zm-78.641-14.969a1 1 0 0 1-.994-.899 43.867 43.867 0 0 1-.222-4.373c0-1.272.057-2.552.167-3.801a1 1 0 1 1 1.992.176 41.452 41.452 0 0 0 .053 7.797 1 1 0 0 1-.895 1.096c-.034.002-.068.004-.101.004zm73.946-30.655a.997.997 0 0 1-.775-.368 41.077 41.077 0 0 0-15.41-11.676 1 1 0 0 1 .794-1.835 43.06 43.06 0 0 1 16.164 12.247.998.998 0 0 1-.773 1.632zm-44.151-13.713a1 1 0 0 1-.281-1.96 43.142 43.142 0 0 1 3.979-.96 1 1 0 1 1 .375 1.965 40.711 40.711 0 0 0-3.792.915.979.979 0 0 1-.281.04z" fill="#8670bd"/><path d="M84.773 267.028h26.138v74.866H84.773z" fill="#2b2b2b"/><g fill="#ababc2"><path d="M83.002 533.517h40v10h-40z"/><path d="M93.319 320.397h2v220.086h-2zm8.742 0h2v220.086h-2zm8.742 0h2v220.086h-2z"/><path d="M89.934 38.317h26.138v298.688H89.934z"/></g><path d="M89.934 71.999h26.138v17.006H89.934z" fill="#2b2b2b"/><path d="M111.383 29.617c0-7.218 5.438-13.159 12.438-13.97L124.505 0H81.5l3.533 80.891h35.939l1.637-37.49c-6.407-1.316-11.226-6.987-11.226-13.784z" fill="#ababc2"/><path d="M111.383 29.617c0 6.797 4.819 12.468 11.226 13.784l1.212-27.754c-7 .811-12.438 6.752-12.438 13.97z" fill="#2b2b2b"/><circle cx="127.036" cy="21.716" fill="#ababc2" r="14.073"/><path d="M95.694 55.217c0 6.797-4.819 12.468-11.226 13.784l-1.212-27.754c7 .811 12.438 6.752 12.438 13.97z" fill="#2b2b2b"/><circle cx="80.932" cy="46.716" fill="#ababc2" r="14.073"/></svg></g><g transform="translate(315.0 498.0) rotate(-123.23300411126516 106.5 73.5) translate(0.0 24.0) scale(1.3007713024201675 1.3077593722755012)"><svg width="92.253" height="94.054" viewBox="0 18.352 92.253 94.054"><path d="M163.749 78.218 51.085 110.974a40.548 40.548 0 0 1-26.772-76.313L107.867 0a33.3 33.3 0 0 0 10.622 12.721 118.832 118.832 0 0 1 45.26 65.497z" fill="#FDC068"/></svg></g><g transform="translate(401.0 250.0) rotate(53.571708599347545 171.5 445.0) translate(0.0 0.0) scale(1.6333333333333333 1.6374832801917878)"><svg width="210" height="156.337" viewBox="0 0 210 156.337"><path d="m186.386 377.853-.524-.749c-3.753-5.949-5.862-12.565-5.862-19.545 0-6.472 1.832-12.625 5.088-18.229 7.886-9.967 12.55-22.229 12.55-35.498v-65.996c0-12.337-10.874-22.337-24.288-22.337-8.313 0-16.049 3.91-20.505 10.365l-13.602 19.704c-8.315 12.046-22.42 19.68-37.908 20.518l-9.335.505-2 .41H52.409c-22.117 0-40.047 16.49-40.047 36.83 0 13.269 4.664 25.531 12.549 35.498 3.257 5.605 5.089 11.757 5.089 18.23 0 6.98-2.109 13.596-5.862 19.545l-.725 1.029C8.532 392.602 0 411.971 0 434.366v7.428C0 492.718 41.282 534 92.206 534h25.589C168.718 534 210 492.718 210 441.794v-7.428c0-22.395-8.734-42.044-23.614-56.513z" fill="#f9d5ff"/><circle cx="103.002" cy="393.521" fill="#2b2b2b" r="34"/><path d="M103.182 436.162c-4.247 0-8.441-.621-12.469-1.846a1 1 0 0 1 .582-1.914 40.79 40.79 0 0 0 11.887 1.76c12.52 0 24.168-5.632 31.959-15.451a.997.997 0 0 1 1.404-.162.998.998 0 0 1 .162 1.404c-8.172 10.301-20.392 16.209-33.525 16.209zm-15.943-3.15a.99.99 0 0 1-.382-.076c-7.962-3.29-14.682-8.846-19.432-16.065a1 1 0 1 1 1.67-1.1c4.529 6.884 10.936 12.181 18.525 15.317a.999.999 0 0 1-.381 1.924zm53.028-19.38a1 1 0 0 1-.887-1.461 40.853 40.853 0 0 0-.256-38.047 1 1 0 1 1 1.761-.947 42.874 42.874 0 0 1 5.068 20.213c0 6.852-1.659 13.665-4.799 19.703a.997.997 0 0 1-.887.539zm-78.641-14.969a1 1 0 0 1-.994-.899 43.867 43.867 0 0 1-.222-4.373c0-1.272.057-2.552.167-3.801a1 1 0 1 1 1.992.176 41.452 41.452 0 0 0 .053 7.797 1 1 0 0 1-.895 1.096c-.034.002-.068.004-.101.004zm73.946-30.655a.997.997 0 0 1-.775-.368 41.077 41.077 0 0 0-15.41-11.676 1 1 0 0 1 .794-1.835 43.06 43.06 0 0 1 16.164 12.247.998.998 0 0 1-.773 1.632zm-44.151-13.713a1 1 0 0 1-.281-1.96 43.142 43.142 0 0 1 3.979-.96 1 1 0 1 1 .375 1.965 40.711 40.711 0 0 0-3.792.915.979.979 0 0 1-.281.04z" fill="#8670bd"/><path d="M84.773 267.028h26.138v74.866H84.773z" fill="#2b2b2b"/><g fill="#ababc2"><path d="M83.002 533.517h40v10h-40z"/><path d="M93.319 320.397h2v220.086h-2zm8.742 0h2v220.086h-2zm8.742 0h2v220.086h-2z"/><path d="M89.934 38.317h26.138v298.688H89.934z"/></g><path d="M89.934 71.999h26.138v17.006H89.934z" fill="#2b2b2b"/><path d="M111.383 29.617c0-7.218 5.438-13.159 12.438-13.97L124.505 0H81.5l3.533 80.891h35.939l1.637-37.49c-6.407-1.316-11.226-6.987-11.226-13.784z" fill="#ababc2"/><path d="M111.383 29.617c0 6.797 4.819 12.468 11.226 13.784l1.212-27.754c-7 .811-12.438 6.752-12.438 13.97z" fill="#2b2b2b"/><circle cx="127.036" cy="21.716" fill="#ababc2" r="14.073"/><path d="M95.694 55.217c0 6.797-4.819 12.468-11.226 13.784l-1.212-27.754c7 .811 12.438 6.752 12.438 13.97z" fill="#2b2b2b"/><circle cx="80.932" cy="46.716" fill="#ababc2" r="14.073"/></svg></g><g transform="translate(57.0 116.0) rotate(0.0 690.5 648.5) scale(1.0281593565107205 1.027610800926355)"><svg width="1343.177" height="1262.151" viewBox="0 0 1343.177 1262.151"><linearGradient id="s"><stop offset="0" stop-color="#C0DDFC" stop-opacity="0"/><stop offset=".996" stop-color="#FFF" stop-opacity="0"/></linearGradient><linearGradient xmlns:xlink="http://www.w3.org/1999/xlink" id="t" gradientTransform="matrix(1 0 0 -1 6009.8047 -6568.3257)" gradientUnits="userSpaceOnUse" x1="-5156.005" x2="-5156.005" xlink:href="#s" y1="-7367.296" y2="-7811.962"/><linearGradient id="u" gradientTransform="matrix(-1 0 0 -1 -2452.5117 -7630.8496)" gradientUnits="userSpaceOnUse" x1="-2899.453" x2="-2899.453" y1="-8580.233" y2="-8879.617"><stop offset="0" stop-color="#FFD8A1" stop-opacity="0"/><stop offset=".996" stop-color="#FFF" stop-opacity="0"/></linearGradient><linearGradient xmlns:xlink="http://www.w3.org/1999/xlink" id="v" gradientTransform="matrix(.2303 .7477 .8068 -.2485 6626.1865 -1842.4639)" gradientUnits="userSpaceOnUse" x1="145.006" x2="275.642" xlink:href="#s" y1="-8126.338" y2="-8126.338"/><g fill="none" opacity=".3" fill-opacity="0"><path d="M5.573 4.734h1332.71v1252.338H5.573zM1.299 0v1262.021h1341.258V0z"/><path d="M968.141 0h4.647v1262.021h-4.647zM773.853 0h4.647v1262.021h-4.647z"/><path d="M968.141 0h4.647v1262.021h-4.647zm194.51 0h4.647v1262.021h-4.647zM579.564 0h4.647v1262.021h-4.647zM385.276 0h4.647v1262.021h-4.647zM193.2 0h4.647v1262.021H193.2z"/></g><path d="m1343.083 1262.151.094-460.6c0-78.858-87.158-139.024-167.083-80.025-80.366 74.877-99.487 113.362-213.555 112.34-222.913 4.085-273.547 426.525-598.117 426.525z" fill="url(#t)"/><path d="M893.883 1261.219c-296.5 0-235.953-272.611-534.723-288.221-99.748-5.543-175.339-22.934-231.951-71.321C68.274 858.377.098 889.061.098 943.558L0 1260.612z" fill="url(#u)"/><circle cx="1078.145" cy="343.344" fill="none" r="5.471"/><circle cx="1213.125" cy="60.298" fill="none" r="5.471"/><path d="m150.901 270.392-8.789 2.707c1.932 6.274-10.718 24.885-21.848 41.244-19.22 28.217-40.926 60.231-33.952 82.877l8.789-2.707c-5.819-18.894 15.636-50.479 32.872-75.759 14.483-21.412 26.014-38.342 22.928-48.362z" fill="url(#v)"/><path d="m1198.251 590.583 12.804-7.212c-5.555-9.862 4.192-26.014 15.247-56.7 19.104-52.935 42.396-94.643 22.344-130.241l-12.804 7.212c16.731 29.702-6.335 70.617-23.478 118.048-14.334 40.136-22.985 53.143-14.113 68.893zm-127.175-386.61v-14.696c-11.319 0-20.608-16.419-41.918-41.112-36.745-42.625-61.653-83.389-102.51-83.389v14.696c34.09 0 58.418 40.178 91.33 78.392 27.935 32.188 35.021 46.109 53.098 46.109z" fill="none"/><g fill="none" fill-opacity="0"><circle cx="302.595" cy="148.458" r="5.975"/><circle cx="75.84" cy="90.81" r="5.975"/><circle cx="624.589" cy="60.298" r="5.975"/></g><path d="M1137.721 385.211h-31.959a112.386 112.386 0 0 0 31.959-19.766z" fill="none"/><path d="M860.67 1261.022H151.404a1.5 1.5 0 0 1 0-3H860.67a1.5 1.5 0 0 1 0 3z" fill="#2b2b2b"/></svg></g></svg>